g default
v -10.25 0.075 -11
v -10.25 0.075 11
v -10.25 -0.075 11
v -10.25 -0.075 -11
v 10.25 0.075 -11
v -10.25 0.075 -11
v -10.25 -0.075 -11
v 10.25 -0.075 -11
v 10.25 0.075 11
v 10.25 0.075 -11
v 10.25 -0.075 -11
v 10.25 -0.075 11
v -10.25 0.075 11
v 10.25 0.075 11
v 10.25 -0.075 11
v -10.25 -0.075 11
v -10.25 -0.075 -11
v -10.25 -0.075 11
v 10.25 -0.075 11
v 10.25 -0.075 -11
v 10.25 0.075 -11
v 10.25 0.075 11
v -10.25 0.075 11
v -10.25 0.075 -11
vt 0.000267 0.001721
vt 0.000233 0.997037
vt 0.005434 0.997103
vt 0.005401 0.001718
vt 0.00049 0.997395
vt 0.995777 0.997303
vt 0.995774 0.992518
vt 0.00049 0.992613
vt 0.994907 0.997319
vt 0.994907 0.002201
vt 0.989776 0.0022
vt 0.989774 0.997322
vt 0.999591 0.004008
vt 0.004268 0.003902
vt 0.004271 0.008686
vt 0.99952 0.008855
vt 1 1
vt 1 0
vt 0 0
vt 0 1
vt 1 1
vt 1 0
vt 0 0
vt 0 1
vn -1 0 0
vn -1 0 0
vn -1 0 0
vn -1 0 0
vn 0 0 -1
vn 0 0 -1
vn 0 0 -1
vn 0 0 -1
vn 1 0 0
vn 1 0 0
vn 1 0 0
vn 1 0 0
vn 0 0 1
vn 0 0 1
vn 0 0 1
vn 0 0 1
vn 0 -1 0
vn 0 -1 0
vn 0 -1 0
vn 0 -1 0
vn 0 1 0
vn 0 1 0
vn 0 1 0
vn 0 1 0
g default_0
f 3/3/3 2/2/2 1/1/1
f 4/4/4 3/3/3 1/1/1
f 7/7/7 6/6/6 5/5/5
f 8/8/8 7/7/7 5/5/5
f 11/11/11 10/10/10 9/9/9
f 12/12/12 11/11/11 9/9/9
f 15/15/15 14/14/14 13/13/13
f 16/16/16 15/15/15 13/13/13
f 19/19/19 18/18/18 17/17/17
f 20/20/20 19/19/19 17/17/17
f 23/23/23 22/22/22 21/21/21
f 24/24/24 23/23/23 21/21/21
